HIERARCHY
ROOT Pelvis
{
	OFFSET 0.000000 0.000000 0.000000
	CHANNELS 6 Xposition Yposition Zposition Xrotation Yrotation Zrotation
	JOINT LeftUpLeg_virtual
	{
		OFFSET 0.000000 0.000000 0.000000
		CHANNELS 3 Xrotation Yrotation Zrotation
		JOINT LeftUpLeg
		{
			OFFSET 18.735201 -5.666702 -4.541200
			CHANNELS 3 Xrotation Yrotation Zrotation
			JOINT LeftLeg
			{
				OFFSET -0.021200 -31.938179 0.493100
				CHANNELS 3 Xrotation Yrotation Zrotation
				JOINT LeftFoot
				{
					OFFSET 0.021200 -31.938179 -4.336299
					CHANNELS 3 Xrotation Yrotation Zrotation
					JOINT LeftToeBase
					{
						OFFSET 0.943001 -26.722000 15.023500
						CHANNELS 3 Xrotation Yrotation Zrotation
						End Site
						{
							OFFSET 0 0 0
						}
					}
				}
			}
		}
	}
	JOINT RightUpLeg_virtual
	{
		OFFSET 0.000000 0.000000 0.000000
		CHANNELS 3 Xrotation Yrotation Zrotation
		JOINT RightUpLeg
		{
			OFFSET -18.735201 -5.666702 -4.541200
			CHANNELS 3 Xrotation Yrotation Zrotation
			JOINT RightLeg
			{
				OFFSET 0.018946 -31.938133 0.493100
				CHANNELS 3 Xrotation Yrotation Zrotation
				JOINT RightFoot
				{
					OFFSET -0.018946 -31.938126 -4.336299
					CHANNELS 3 Xrotation Yrotation Zrotation
					JOINT RightToeBase
					{
						OFFSET -0.943001 -26.722004 15.023500
						CHANNELS 3 Xrotation Yrotation Zrotation
						End Site
						{
							OFFSET 0 0 0
						}
					}
				}
			}
		}
	}
	JOINT Hips_virtual
	{
		OFFSET 0.000000 0.000000 0.000000
		CHANNELS 3 Xrotation Yrotation Zrotation
		JOINT Hips
		{
			OFFSET -0.000000 -0.000000 -0.000000
			CHANNELS 3 Xrotation Yrotation Zrotation
			JOINT Spine
			{
				OFFSET 0.000000 10.199997 -0.299500
				CHANNELS 3 Xrotation Yrotation Zrotation
				JOINT Spine1
				{
					OFFSET 0.000000 11.900002 -1.516600
					CHANNELS 3 Xrotation Yrotation Zrotation
					JOINT Spine2
					{
						OFFSET 0.000000 13.600006 -2.842500
						CHANNELS 3 Xrotation Yrotation Zrotation
						JOINT Neck_virtual
						{
							OFFSET 0.000000 0.000000 0.000000
							CHANNELS 3 Xrotation Yrotation Zrotation
							JOINT Neck
							{
								OFFSET 0.000000 9.624100 -2.890100
								CHANNELS 3 Xrotation Yrotation Zrotation
								JOINT Head
								{
									OFFSET 0.000000 14.068802 -1.351900
									CHANNELS 3 Xrotation Yrotation Zrotation
									End Site
									{
										OFFSET 0 0 0
									}
								}
							}
						}
						JOINT LeftShoulder_virtual
						{
							OFFSET 0.000000 0.000000 0.000000
							CHANNELS 3 Xrotation Yrotation Zrotation
							JOINT LeftShoulder
							{
								OFFSET 15.263000 10.923401 -0.547700
								CHANNELS 3 Xrotation Yrotation Zrotation
								JOINT LeftArm
								{
									OFFSET 25.438599 -2.830597 -13.032500
									CHANNELS 3 Xrotation Yrotation Zrotation
									JOINT LeftForeArm
									{
										OFFSET 29.960503 0.000000 0.000000
										CHANNELS 3 Xrotation Yrotation Zrotation
										JOINT LeftHand
										{
											OFFSET 27.849251 0.000000 0.000000
											CHANNELS 3 Xrotation Yrotation Zrotation
											End Site
											{
												OFFSET 0 0 0
											}
										}
									}
								}
							}
						}
						JOINT RightShoulder_virtual
						{
							OFFSET 0.000000 0.000000 0.000000
							CHANNELS 3 Xrotation Yrotation Zrotation
							JOINT RightShoulder
							{
								OFFSET -15.263000 10.923401 -0.547700
								CHANNELS 3 Xrotation Yrotation Zrotation
								JOINT RightArm
								{
									OFFSET -25.438599 -2.830597 -13.032500
									CHANNELS 3 Xrotation Yrotation Zrotation
									JOINT RightForeArm
									{
										OFFSET -29.960503 0.000000 0.000000
										CHANNELS 3 Xrotation Yrotation Zrotation
										JOINT RightHand
										{
											OFFSET -27.849251 0.000000 0.000000
											CHANNELS 3 Xrotation Yrotation Zrotation
											End Site
											{
												OFFSET 0 0 0
											}
										}
									}
								}
							}
						}
					}
				}
			}
		}
	}
}
MOTION
Frames: 6
Frame Time: 0.03333333
0.865639 92.898979 20.986189 0.000000 0.000000 0.000000 -0.317577 0.416180 -5.666455 -5.626530 1.603276 12.393934 30.677197 -1.776567 -3.575689 -18.129158 7.310721 7.486657 0.000000 0.000000 0.000000 -1.208368 1.442787 -5.386225 -52.491462 -6.644859 2.330203 41.966704 -3.269108 2.763708 17.997412 2.325905 4.863032 0.000000 0.000000 0.000000 -0.914276 1.569552 -5.144384 -0.766751 -0.184125 -0.102746 10.383301 -5.188173 2.438651 1.229668 0.497726 1.643211 0.000000 0.000000 0.000000 -0.566829 1.030415 1.384869 1.758738 -3.738785 0.565293 0.000000 0.000000 0.000000 -1.149516 0.407699 1.941637 0.004296 1.782828 -8.170324 -20.406881 -27.133227 -68.687995 -1.178632 1.495165 -13.450313 0.000000 0.000000 0.000000 -0.405473 2.014692 1.627281 -5.302563 2.707998 9.438876 -5.430819 22.441698 58.748492 7.835667 15.381301 11.190809 0.000000 0.000000 0.000000 
1.506169 91.953476 22.575399 0.000000 0.000000 0.000000 -0.158362 -0.666037 -5.929032 -2.714927 2.376085 13.083721 29.455795 -2.732605 -2.630878 -22.151500 6.169411 5.338637 0.000000 0.000000 0.000000 -0.782983 0.412873 -5.857036 -53.090456 -7.306010 1.519085 35.201767 0.002889 3.233308 17.846526 4.206216 4.600217 0.000000 0.000000 0.000000 -0.774601 0.875052 -5.344888 -0.790622 -0.108712 -0.106405 10.088188 -5.263608 2.707036 1.088806 0.364742 1.777853 0.000000 0.000000 0.000000 -0.288942 0.891690 1.304348 1.571866 -3.640280 0.679284 0.000000 0.000000 0.000000 -1.106008 0.317114 1.869644 -0.246600 1.618082 -7.459713 -20.067198 -27.045596 -69.080369 -1.167655 0.985896 -14.052718 0.000000 0.000000 0.000000 -0.673174 1.823225 1.667676 -4.945245 2.228262 8.748551 -5.024410 22.604584 58.416579 7.705383 14.348108 12.484545 0.000000 0.000000 0.000000 
1.943332 90.939583 24.227989 0.000000 0.000000 0.000000 -0.008769 -1.494282 -6.130168 0.502498 2.887205 13.698637 27.911336 -3.727564 -1.556209 -26.541685 5.307673 3.475699 0.000000 0.000000 0.000000 -0.454241 -0.209901 -6.292737 -54.306021 -8.168106 0.305466 29.963698 3.059729 4.342040 18.958650 5.494091 3.594163 0.000000 0.000000 0.000000 -0.621937 0.504396 -5.580859 -0.804590 -0.037653 -0.116019 9.833570 -5.353027 2.873848 0.999499 0.190658 2.029986 0.000000 0.000000 0.000000 -0.079479 0.732770 1.382071 1.324030 -3.544501 0.705386 0.000000 0.000000 0.000000 -1.136586 0.191212 1.925687 -0.491398 1.356234 -7.188743 -19.561146 -27.089095 -69.243864 -1.092116 0.622871 -14.605093 0.000000 0.000000 0.000000 -0.957696 1.600589 1.806908 -4.688503 1.872605 7.973188 -4.381673 22.641006 58.294613 7.637074 13.740033 13.432937 0.000000 0.000000 0.000000 
2.136713 89.968277 26.043619 0.000000 0.000000 0.000000 0.182061 -1.892078 -6.238767 3.905209 3.136278 14.328738 26.136158 -4.836040 -0.522147 -31.069270 4.685751 1.671289 0.000000 0.000000 0.000000 -0.307669 -0.393649 -6.622265 -55.674576 -9.106783 -0.877033 26.664971 5.416457 5.537529 19.266803 5.497833 1.583326 0.000000 0.000000 0.000000 -0.464317 0.519179 -5.818289 -0.818302 0.001015 -0.133117 9.578961 -5.400152 2.909177 0.948003 -0.022080 2.360903 0.000000 0.000000 0.000000 0.025165 0.572024 1.598962 1.015176 -3.462407 0.660555 0.000000 0.000000 0.000000 -1.204656 0.033446 2.081762 -0.730717 0.962386 -7.262540 -18.936167 -27.212268 -69.159982 -0.959954 0.252793 -15.074644 0.000000 0.000000 0.000000 -1.188632 1.370783 2.012265 -4.520335 1.594580 7.156399 -3.692764 22.441437 58.513951 7.665399 13.685104 14.034605 0.000000 0.000000 0.000000 
2.014275 89.090561 27.930294 0.000000 0.000000 0.000000 0.353557 -1.744763 -6.236540 7.194942 3.869528 15.150695 24.126798 -5.882828 -0.185701 -34.681962 4.326209 -0.506744 0.000000 0.000000 0.000000 -0.353205 -0.216359 -6.674529 -56.831685 -9.867191 -1.772785 25.390861 7.285690 6.428508 18.906805 4.785485 -0.664288 0.000000 0.000000 0.000000 -0.370317 0.787557 -5.975511 -0.821551 -0.003072 -0.146333 9.343963 -5.332528 2.778313 0.962966 -0.244677 2.707424 0.000000 0.000000 0.000000 -0.002136 0.432805 1.885188 0.660518 -3.400211 0.567751 0.000000 0.000000 0.000000 -1.261061 -0.124793 2.271002 -0.965704 0.466788 -7.525455 -18.302728 -27.269542 -68.816546 -0.803709 -0.308334 -15.458779 0.000000 0.000000 0.000000 -1.295718 1.174452 2.219830 -4.417259 1.225749 6.341310 -3.243695 21.961269 59.232951 7.791718 14.162730 14.259318 0.000000 0.000000 0.000000 
1.578341 88.235794 30.021799 0.000000 0.000000 0.000000 0.382929 -1.119583 -6.128807 9.446258 5.508707 16.186314 22.601023 -6.477930 -0.852063 -36.147301 4.338946 -2.585955 0.000000 0.000000 0.000000 -0.545642 0.194302 -6.518972 -57.838718 -10.643264 -2.714109 25.618967 8.806445 7.219078 18.861494 3.978111 -2.368035 0.000000 0.000000 0.000000 -0.378201 1.136171 -5.954966 -0.829513 -0.025907 -0.154244 9.188590 -5.061432 2.486242 1.029557 -0.433371 2.969667 0.000000 0.000000 0.000000 -0.159316 0.325082 2.114264 0.278408 -3.356843 0.448864 0.000000 0.000000 0.000000 -1.274208 -0.253653 2.427662 -1.196218 -0.069598 -7.778020 -17.689526 -27.167832 -68.289570 -0.651432 -1.199070 -15.756034 0.000000 0.000000 0.000000 -1.222663 1.041527 2.357595 -4.371570 0.680642 5.550420 -3.290286 21.216022 60.494979 8.027661 14.829353 14.129122 0.000000 0.000000 0.000000 
